<?xml version="1.0" encoding="UTF-8" standalone="no"?>
<svg width="121px" height="70px" viewBox="0 0 121 70" version="1.1" xmlns="http://www.w3.org/2000/svg" xmlns:xlink="http://www.w3.org/1999/xlink">
    <!-- Generator: Sketch 39.1 (31720) - http://www.bohemiancoding.com/sketch -->
    <title>Page 1</title>
    <desc>Created with Sketch.</desc>
    <defs>
        <polygon id="path-1" points="1.71591671e-20 0.507054545 1.71591671e-20 1.77978182 7.61041245 1.77978182 7.61041245 0.507054545 0 0.507054545"></polygon>
    </defs>
    <g id="MOCKUP" stroke="none" stroke-width="1" fill="none" fill-rule="evenodd">
        <g id="Desktop" transform="translate(-33.000000, -9.000000)">
            <g id="Page-1" transform="translate(33.000000, 9.000000)">
                <path d="M41.2083804,22.3249091 C41.4578067,20.9083636 42.3023107,20.6258182 42.9822188,20.6258182 C44.3230431,20.6258182 44.6205821,21.4098182 45.3017563,23.5429091 L46.6096614,27.6232727 L46.6451128,27.6232727 L47.9530179,23.5429091 C48.632926,21.4098182 48.9317311,20.6258182 50.2738215,20.6258182 C50.9524635,20.6258182 51.7969675,20.9083636 52.0476599,22.3249091 L53.1048726,28.4263636 C53.3213797,29.6532727 53.5556125,31.0074545 53.5556125,31.4032727 C53.5556125,32.004 53.0909453,32.6861818 52.29582,32.6861818 C51.0866725,32.6861818 50.8688993,31.8156364 50.7359564,30.9081818 L49.939565,25.6416364 L49.9079119,25.6416364 L48.1036866,31.4707273 C47.8390669,32.3387273 47.4402381,32.6861818 46.626121,32.6861818 C45.8158022,32.6861818 45.4182396,32.3387273 45.1510876,31.4707273 L43.3468623,25.6416364 L43.3126769,25.6416364 L42.5188178,30.9081818 C42.3858749,31.8156364 42.170634,32.6861818 40.9614864,32.6861818 C40.1638289,32.6861818 39.701694,32.004 39.701694,31.4032727 C39.701694,31.0074545 39.9308623,29.6532727 40.1486354,28.4263636 L41.2083804,22.3249091 Z" id="Fill-1" fill="#333433"></path>
                <path d="M57.0856901,27.8223273 C57.0856901,29.4030545 58.1783543,30.2532364 59.5077835,30.2532364 C60.8334144,30.2532364 61.9438043,29.4030545 61.9438043,27.8223273 L61.9438043,22.0606909 C61.9438043,21.1074182 62.5046968,20.6263273 63.2833625,20.6263273 C64.0658265,20.6263273 64.6292513,21.1074182 64.6292513,22.0606909 L64.6292513,27.8223273 C64.6292513,30.9557818 62.4895033,32.8521455 59.5077835,32.8521455 C56.5247976,32.8521455 54.4015093,30.9557818 54.4015093,27.8223273 L54.4015093,22.0606909 C54.4015093,21.1074182 54.9662001,20.6263273 55.7448658,20.6263273 C56.5247976,20.6263273 57.0856901,21.1074182 57.0856901,22.0606909 L57.0856901,27.8223273 Z" id="Fill-3" fill="#333433"></path>
                <path d="M65.8383988,22.0601818 C65.8383988,21.1069091 66.4018236,20.6258182 67.1830215,20.6258182 C67.8933165,20.6258182 68.1402105,20.9465455 69.0378918,22.0754545 L73.4946449,27.6881818 L73.526298,27.6881818 L73.526298,22.0601818 C73.526298,21.1069091 74.0909889,20.6258182 74.8696546,20.6258182 C75.6483202,20.6258182 76.211745,21.1069091 76.211745,22.0601818 L76.211745,31.2556364 C76.211745,32.2063636 75.6483202,32.6861818 74.8696546,32.6861818 C74.1568273,32.6861818 73.8922076,32.3705455 73.0173165,31.2378182 L68.5580311,25.6250909 L68.5238458,25.6250909 L68.5238458,31.2556364 C68.5238458,32.2063636 67.9604211,32.6861818 67.1830215,32.6861818 C66.4018236,32.6861818 65.8383988,32.2063636 65.8383988,31.2556364 L65.8383988,22.0601818 Z" id="Fill-5" fill="#333433"></path>
                <path d="M80.1935754,31.2551273 C80.1935754,32.2058545 79.6276184,32.6856727 78.8489527,32.6856727 C78.0664887,32.6856727 77.5081284,32.2058545 77.5081284,31.2551273 L77.5081284,22.0596727 C77.5081284,21.1064 78.0664887,20.6253091 78.8489527,20.6253091 C79.6276184,20.6253091 80.1935754,21.1064 80.1935754,22.0596727 L80.1935754,31.2551273 Z" id="Fill-7" fill="#333433"></path>
                <path d="M87.0336786,20.4593455 C88.6581145,20.4593455 90.5990811,20.9264364 90.5990811,22.3429818 C90.5990811,22.9920727 90.1344139,23.6208 89.4393124,23.6208 C88.8087831,23.6208 88.1466007,23.0582545 87.1033153,23.0582545 C84.9319143,23.0582545 84.0734829,24.8248 84.0734829,26.6562545 C84.0734829,28.5424364 85.0332042,30.1562545 86.8703487,30.1562545 C88.5416311,30.1562545 88.8087831,29.6064364 89.5064169,29.6064364 C90.5648958,29.6064364 90.6965726,30.5049818 90.6965726,30.8549818 C90.6965726,32.3389818 88.4605993,32.8518909 86.9817675,32.8518909 C83.2745592,32.8518909 81.1854562,30.0569818 81.1854562,26.6562545 C81.1854562,23.0582545 83.4898001,20.4593455 87.0336786,20.4593455" id="Fill-9" fill="#333433"></path>
                <path d="M93.9948231,31.2551273 C93.9948231,32.2058545 93.4339306,32.6856727 92.6514666,32.6856727 C91.8753331,32.6856727 91.3119084,32.2058545 91.3119084,31.2551273 L91.3119084,22.0596727 C91.3119084,21.1064 91.8753331,20.6253091 92.6514666,20.6253091 C93.4339306,20.6253091 93.9948231,21.1064 93.9948231,22.0596727 L93.9948231,31.2551273 Z" id="Fill-11" fill="#333433"></path>
                <path d="M97.9737414,26.3730727 L99.4158556,26.3730727 C100.557899,26.3730727 101.188428,25.5903455 101.188428,24.7618 C101.188428,23.6939818 100.476867,23.1301636 99.4158556,23.1301636 L97.9737414,23.1301636 L97.9737414,26.3730727 Z M95.2882944,22.0750727 C95.2882944,21.2108909 95.9365494,20.7310727 96.6303849,20.7310727 L99.9299016,20.7310727 C102.002545,20.7310727 103.972632,22.0750727 103.972632,24.7618 C103.972632,27.0730727 102.56597,28.7734364 100.013466,28.7734364 L97.9737414,28.7734364 L97.9737414,31.2552545 C97.9737414,32.2059818 97.4103167,32.6858 96.6303849,32.6858 C95.8517192,32.6858 95.2882944,32.2059818 95.2882944,31.2552545 L95.2882944,22.0750727 Z" id="Fill-13" fill="#333433"></path>
                <path d="M107.484478,31.2551273 C107.484478,32.2058545 106.926118,32.6856727 106.141121,32.6856727 C105.364988,32.6856727 104.801563,32.2058545 104.801563,31.2551273 L104.801563,22.0596727 C104.801563,21.1064 105.364988,20.6253091 106.141121,20.6253091 C106.926118,20.6253091 107.484478,21.1064 107.484478,22.0596727 L107.484478,31.2551273 Z" id="Fill-15" fill="#333433"></path>
                <path d="M111.366918,26.6565091 C111.366918,28.5414182 112.210156,30.3537818 114.282799,30.3537818 C116.354176,30.3537818 117.197414,28.5414182 117.197414,26.6565091 C117.197414,24.7792364 116.354176,22.9592364 114.282799,22.9592364 C112.210156,22.9592364 111.366918,24.7792364 111.366918,26.6565091 M120.07911,26.6565091 C120.07911,30.4186909 117.776033,32.8521455 114.282799,32.8521455 C110.785767,32.8521455 108.481423,30.4186909 108.481423,26.6565091 C108.481423,22.8892364 110.785767,20.4596 114.282799,20.4596 C117.776033,20.4596 120.07911,22.8892364 120.07911,26.6565091" id="Fill-17" fill="#333433"></path>
                <path d="M42.5029913,46.1128182 L44.0020809,46.1128182 C46.19374,46.1128182 47.2205658,44.5944545 47.2205658,42.4219091 C47.2205658,40.3219091 46.1747481,38.9079091 44.1223626,38.9079091 L42.5029913,38.9079091 L42.5029913,46.1128182 Z M39.6833352,37.6975455 C39.6833352,36.7888182 40.3645094,36.281 41.0950624,36.281 L44.4730787,36.281 C48.1600291,36.281 50.2503982,39.2197273 50.2503982,42.4219091 C50.2503982,46.4997273 47.5345643,48.7384545 44.4730787,48.7384545 L41.0950624,48.7384545 C40.3645094,48.7384545 39.6833352,48.2357273 39.6833352,47.3219091 L39.6833352,37.6975455 Z" id="Fill-19" fill="#333433"></path>
                <path d="M51.5352599,37.6971636 C51.5352599,36.7884364 52.2139019,36.2818909 52.9444549,36.2818909 L57.2594022,36.2818909 C58.1469545,36.2818909 58.6711294,36.8037091 58.6711294,37.5928 C58.6711294,38.4162545 58.1469545,38.9075273 57.2594022,38.9075273 L54.3561821,38.9075273 L54.3561821,41.1640727 L57.0150405,41.1640727 C57.9038589,41.1640727 58.4280338,41.6693455 58.4280338,42.4724364 C58.4280338,43.2806182 57.9038589,43.7846182 57.0150405,43.7846182 L54.3561821,43.7846182 L54.3561821,46.1124364 L57.3657566,46.1124364 C58.2507766,46.1124364 58.7736854,46.6037091 58.7736854,47.4246182 C58.7736854,48.2149818 58.2507766,48.7380727 57.3657566,48.7380727 L52.9444549,48.7380727 C52.2139019,48.7380727 51.5352599,48.2353455 51.5352599,47.3215273 L51.5352599,37.6971636 Z" id="Fill-21" fill="#333433"></path>
                <path d="M64.9160282,37.681 C64.9160282,36.687 65.5098399,36.1740909 66.3277554,36.1740909 C67.146937,36.1740909 67.7382165,36.687 67.7382165,37.681 L67.7382165,46.1128182 L70.7667828,46.1128182 C71.6543351,46.1128182 72.1734455,46.6040909 72.1734455,47.425 C72.1734455,48.2140909 71.6543351,48.7384545 70.7667828,48.7384545 L66.3277554,48.7384545 C65.5959362,48.7384545 64.9160282,48.2357273 64.9160282,47.3219091 L64.9160282,37.681 Z" id="Fill-23" fill="#333433"></path>
                <path d="M75.6014737,42.5096 C75.6014737,44.4886909 76.4890259,46.3939636 78.6680237,46.3939636 C80.8444893,46.3939636 81.7320415,44.4886909 81.7320415,42.5096 C81.7320415,40.5330545 80.8444893,38.6252364 78.6680237,38.6252364 C76.4890259,38.6252364 75.6014737,40.5330545 75.6014737,42.5096 M84.7580756,42.5096 C84.7580756,46.4626909 82.3372483,49.0183273 78.6680237,49.0183273 C74.9950007,49.0183273 72.5767057,46.4626909 72.5767057,42.5096 C72.5767057,38.5565091 74.9950007,36.0021455 78.6680237,36.0021455 C82.3372483,36.0021455 84.7580756,38.5565091 84.7580756,42.5096" id="Fill-25" fill="#333433"></path>
                <path d="M89.1430396,46.2171818 L90.9156119,46.2171818 C91.8588735,46.2171818 92.624878,45.8875455 92.624878,44.9419091 C92.624878,44.0000909 91.7550514,43.6666364 90.9156119,43.6666364 L89.1430396,43.6666364 L89.1430396,46.2171818 Z M89.1430396,41.1466364 L90.4319529,41.1466364 C91.2296104,41.1466364 91.7170678,40.7419091 91.7170678,39.9719091 C91.7170678,39.2031818 91.2498683,38.8035455 90.4319529,38.8035455 L89.1430396,38.8035455 L89.1430396,41.1466364 Z M86.3233835,37.6975455 C86.3233835,36.7888182 87.0020255,36.281 87.7338446,36.281 L91.0599499,36.281 C93.1984317,36.281 94.539256,37.6084545 94.539256,39.5315455 C94.539256,40.8106364 93.6517038,41.5666364 93.0578921,41.9153636 C94.5734414,42.2131818 95.5508884,43.4184545 95.5508884,44.975 C95.5508884,46.9515455 94.2797008,48.7371818 91.2296104,48.7371818 L87.7338446,48.7371818 C87.0020255,48.7371818 86.3233835,48.2357273 86.3233835,47.3219091 L86.3233835,37.6975455 Z" id="Fill-27" fill="#333433"></path>
                <path d="M99.8803961,42.5096 C99.8803961,44.4886909 100.767948,46.3939636 102.944414,46.3939636 C105.118347,46.3939636 106.008432,44.4886909 106.008432,42.5096 C106.008432,40.5330545 105.118347,38.6252364 102.944414,38.6252364 C100.767948,38.6252364 99.8803961,40.5330545 99.8803961,42.5096 M109.034466,42.5096 C109.034466,46.4626909 106.613639,49.0183273 102.944414,49.0183273 C99.2701248,49.0183273 96.8530959,46.4626909 96.8530959,42.5096 C96.8530959,38.5565091 99.2701248,36.0021455 102.944414,36.0021455 C106.613639,36.0021455 109.034466,38.5565091 109.034466,42.5096" id="Fill-29" fill="#333433"></path>
                <path d="M111.32982,45.4639818 C112.029986,45.4639818 112.932732,46.1830727 114.37358,46.1830727 C115.471309,46.1830727 115.87267,45.6268909 115.87267,45.0134364 C115.87267,44.0678 114.793933,43.8768909 113.192287,43.3487091 C111.732447,42.8765273 110.216898,42.2452545 110.216898,39.9950727 C110.216898,37.2790727 112.321195,36.0012545 114.671119,36.0012545 C116.936213,36.0012545 118.187143,36.7890727 118.187143,37.8734364 C118.187143,38.6408909 117.685758,39.2034364 116.936213,39.2034364 C116.028403,39.2034364 115.734662,38.7287091 114.531846,38.7287091 C113.768373,38.7287091 113.244198,39.1347091 113.244198,39.7456182 C113.244198,40.4608909 113.941832,40.5525273 115.890396,41.1978 C117.418606,41.7068909 118.901236,42.4972545 118.901236,44.8543455 C118.901236,47.7230727 116.794407,49.0187091 114.168468,49.0187091 C112.514911,49.0187091 110.006722,48.3696182 110.006722,46.9747091 C110.006722,46.2008909 110.476453,45.4639818 111.32982,45.4639818" id="Fill-31" fill="#333433"></path>
                <path d="M31.9176961,0.218781818 L31.4340371,0.260781818 L32.1000178,7.74823636 C32.2595493,7.73041818 32.421613,7.71769091 32.5811446,7.70496364 L31.9176961,0.218781818 Z" id="Fill-33" fill="#EE3A39"></path>
                <path d="M28.861275,0.599072727 L28.3826805,0.686890909 L29.7070452,8.09289091 C29.8653106,8.06234545 30.0223099,8.03434545 30.1831075,8.00889091 L28.861275,0.599072727 Z" id="Fill-35" fill="#EE3A39"></path>
                <path d="M25.844357,1.25541818 L25.3758915,1.38269091 L27.3535757,8.65250909 C27.5080427,8.60796364 27.6663081,8.56723636 27.8207751,8.52523636 L25.844357,1.25541818 Z" id="Fill-37" fill="#EE3A39"></path>
                <path d="M20.2221376,3.28007273 L19.7815268,3.4888 L22.983552,10.3297091 C23.12789,10.2571636 23.2734941,10.1833455 23.4203644,10.1197091 L20.2221376,3.28007273 Z" id="Fill-39" fill="#EE3A39"></path>
                <path d="M17.5266882,4.66709091 L17.1050692,4.91145455 L20.8933094,11.4596364 C21.0313168,11.3781818 21.1718565,11.2954545 21.31113,11.214 L17.5266882,4.66709091 Z" id="Fill-41" fill="#EE3A39"></path>
                <path d="M14.9858325,6.27047273 L14.589536,6.55301818 L18.9310719,12.7550182 C19.0627487,12.6595636 19.1944255,12.5653818 19.3299007,12.4775636 L14.9858325,6.27047273 Z" id="Fill-43" fill="#EE3A39"></path>
                <path d="M10.3392875,10.1283636 L9.99870037,10.4758182 L15.3607315,15.8429091 C15.4721503,15.7296364 15.5861014,15.6150909 15.7013186,15.498 L10.3392875,10.1283636 Z" id="Fill-45" fill="#EE3A39"></path>
                <path d="M8.16180904,12.4936 L7.85414114,12.8690545 L13.6884362,17.7232364 C13.7909921,17.5985091 13.8935481,17.4763273 13.9986363,17.3477818 L8.16180904,12.4936 Z" id="Fill-47" fill="#EE3A39"></path>
                <path d="M6.38012068,14.8154364 L6.10157361,15.2138 L12.3283668,19.5588909 C12.4207938,19.4239818 12.515753,19.2928909 12.6056477,19.1579818 L6.38012068,14.8154364 Z" id="Fill-49" fill="#EE3A39"></path>
                <path d="M3.31749563,20.0840182 L3.11364981,20.5269273 L10.0051576,23.7176545 C10.070996,23.5687455 10.1406328,23.4249273 10.2090034,23.2772909 L3.31749563,20.0840182 Z" id="Fill-51" fill="#EE3A39"></path>
                <path d="M2.15266242,22.8706545 L1.98806642,23.3275636 L9.13153269,25.9150182 C9.18724211,25.7546545 9.24295152,25.6006545 9.29866093,25.4530182 L2.15266242,22.8706545 Z" id="Fill-53" fill="#EE3A39"></path>
                <path d="M1.23155789,25.7479091 L1.10874396,26.2137273 L8.45099155,28.1699091 C8.49277361,28.0095455 8.53708792,27.8517273 8.5801361,27.6977273 L1.23155789,25.7479091 Z" id="Fill-55" fill="#EE3A39"></path>
                <path d="M0.149655745,31.6963818 L0.109139807,32.1838364 L7.68562016,32.8278364 C7.69828139,32.6674727 7.71474099,32.5045636 7.72993447,32.3391091 L0.149655745,31.6963818 Z" id="Fill-57" fill="#EE3A39"></path>
                <g id="Group-61" transform="translate(0.000000, 34.154909)">
                    <mask id="mask-2" fill="white">
                        <use xlink:href="#path-1"></use>
                    </mask>
                    <g id="Clip-60"></g>
                    <path d="M7.61041245,0.507054545 L-0.00025322461,0.517236364 L-0.00025322461,1.00469091 L7.60661408,0.993236364 C7.60661408,0.933418182 7.60534796,0.869781818 7.60534796,0.809963636 C7.60534796,0.706872727 7.60661408,0.610145455 7.61041245,0.507054545" id="Fill-59" fill="#EE3A39" mask="url(#mask-2)"></path>
                </g>
                <path d="M0.11255834,37.7965636 L0.1543404,38.2814727 L7.73082076,37.5878364 C7.71436116,37.4262 7.69790156,37.2645636 7.68650645,37.1016545 L0.11255834,37.7965636 Z" id="Fill-62" fill="#EE3A39"></path>
                <path d="M1.15115908,43.8767636 L1.28030363,44.3527636 L8.60735775,42.3291273 C8.56051119,42.1738545 8.51999526,42.0160364 8.47568095,41.8544 L1.15115908,43.8767636 Z" id="Fill-64" fill="#EE3A39"></path>
                <path d="M2.0228848,46.7056545 L2.19254529,47.1638364 L9.31955196,44.5331091 C9.25877806,44.3740182 9.20560089,44.2238364 9.1511576,44.0672909 L2.0228848,46.7056545 Z" id="Fill-66" fill="#EE3A39"></path>
                <path d="M3.16783988,49.5208 L3.37295182,49.9624364 L10.237871,46.7169818 C10.1682342,46.5706182 10.1011297,46.4178909 10.0327591,46.2740727 L3.16783988,49.5208 Z" id="Fill-68" fill="#EE3A39"></path>
                <path d="M6.16500638,54.8044 L6.44355345,55.2065818 L12.6323629,50.8067636 C12.5412021,50.6807636 12.447509,50.5445818 12.3576142,50.4045818 L6.16500638,54.8044 Z" id="Fill-70" fill="#EE3A39"></path>
                <path d="M7.99746627,57.2367091 L8.31019867,57.6108909 L14.0925827,52.6854364 C13.9874944,52.5619818 13.879874,52.4410727 13.7785841,52.3138 L7.99746627,57.2367091 Z" id="Fill-72" fill="#EE3A39"></path>
                <path d="M10.0536501,59.5124727 L10.3980356,59.8548364 L15.722083,54.4470182 C15.6055997,54.3337455 15.4903825,54.2192 15.3814959,54.1021091 L10.0536501,59.5124727 Z" id="Fill-74" fill="#EE3A39"></path>
                <path d="M14.6815831,63.4474909 L15.0791457,63.7236727 L19.372569,57.4847636 C19.2396261,57.3931273 19.105417,57.3027636 18.9775386,57.2034909 L14.6815831,63.4474909 Z" id="Fill-76" fill="#EE3A39"></path>
                <path d="M17.2150953,65.0843455 L17.6341821,65.3248909 L21.3679789,58.7499818 C21.2261732,58.6672545 21.0856335,58.5845273 20.9488922,58.4992545 L17.2150953,65.0843455 Z" id="Fill-78" fill="#EE3A39"></path>
                <path d="M19.8907932,66.4988545 L20.331404,66.7024909 L23.4739214,59.8335818 C23.3245189,59.7623091 23.1801809,59.6935818 23.0345767,59.6261273 L19.8907932,66.4988545 Z" id="Fill-80" fill="#EE3A39"></path>
                <path d="M25.5549213,68.5968182 L26.0208546,68.719 L27.9238375,61.4313636 C27.7693705,61.3906364 27.6161696,61.3524545 27.4604365,61.3053636 L25.5549213,68.5968182 Z" id="Fill-82" fill="#EE3A39"></path>
                <path d="M28.4804252,69.2629636 L28.9564875,69.3444182 L30.2251428,61.9269636 C30.0656113,61.9015091 29.908612,61.8696909 29.7490805,61.8391455 L28.4804252,69.2629636 Z" id="Fill-84" fill="#EE3A39"></path>
                <path d="M31.3378117,69.6606909 L31.8189385,69.7039636 L32.4709918,62.2177818 C32.307662,62.2025091 32.1455982,62.1923273 31.9873328,62.1719636 L31.3378117,69.6606909 Z" id="Fill-86" fill="#EE3A39"></path>
                <path d="M22.9040394,2.20614545 L24.8931188,9.48996364 C25.2463671,9.34996364 25.6008815,9.21887273 25.9591944,9.09287273 L22.9040394,2.20614545 Z" id="Fill-88" fill="#EE3A39"></path>
                <path d="M34.657713,0 L34.1715217,7.64781818 C34.5500925,7.63636364 34.3095291,7.63254545 34.6918983,7.64527273 L34.657713,0 Z" id="Fill-90" fill="#EE3A39"></path>
                <path d="M34.6787306,69.7912727 L34.692658,62.3012727 C34.3140872,62.3114545 34.4267721,62.2809091 34.0456691,62.2809091 L34.6787306,69.7912727 Z" id="Fill-92" fill="#EE3A39"></path>
                <path d="M12.341028,8.32745455 L16.7522007,14.5078182 C17.0370784,14.2558182 17.3270206,14.0050909 17.6232934,13.7645455 L12.341028,8.32745455 Z" id="Fill-94" fill="#EE3A39"></path>
                <path d="M4.63299748,17.5932909 L10.9003066,21.9065636 C11.0826283,21.5680182 11.2763451,21.2332909 11.470062,20.9036545 L4.63299748,17.5932909 Z" id="Fill-96" fill="#EE3A39"></path>
                <path d="M0.529239437,28.9707091 L7.9082046,30.8683455 C7.96518013,30.4865273 8.03228466,30.1072545 8.10445367,29.7318 L0.529239437,28.9707091 Z" id="Fill-98" fill="#EE3A39"></path>
                <path d="M0.546585322,41.0592 L8.12559792,40.3095636 C8.05216279,39.9341091 7.98379214,39.5548364 7.92808273,39.1730182 L0.546585322,41.0592 Z" id="Fill-100" fill="#EE3A39"></path>
                <path d="M4.70478666,52.4639818 L11.5519801,49.1536182 C11.3481343,48.8227091 11.1607481,48.4930727 10.9758941,48.1532545 L4.70478666,52.4639818 Z" id="Fill-102" fill="#EE3A39"></path>
                <path d="M12.4572581,61.6974909 L17.7395235,56.2578545 C17.4445168,56.0173091 17.1495102,55.7691273 16.8671647,55.5171273 L12.4572581,61.6974909 Z" id="Fill-104" fill="#EE3A39"></path>
                <path d="M22.866942,67.7093455 L25.9600807,60.8391636 C25.6043001,60.7118909 25.2497856,60.5769818 24.8965373,60.4395273 L22.866942,67.7093455 Z" id="Fill-106" fill="#EE3A39"></path>
                <path d="M31.0620501,20.2728909 C31.0886387,19.7727091 30.9797521,19.0701636 30.5252139,18.6234364 C29.7997254,17.9158 29.8845557,16.7258 30.4669723,16.1963455 C31.5153222,15.0890727 30.4631739,13.9830727 30.4175935,13.7985273 C30.886059,13.7387091 31.9445379,14.1396182 31.8647721,15.2659818 C31.6976439,16.0741636 31.811595,17.0516182 32.4218663,17.5619818 C33.0827825,18.1143455 33.1486209,19.0816182 33.0637907,19.8070727 C33.108105,19.8032545 33.1587499,19.7943455 33.2030642,19.7930727 L34.2020353,7.61816364 C33.6614007,7.63216364 33.1157017,7.65889091 32.5813978,7.70470909 L32.87134,10.9488909 L32.3864148,10.9908909 L32.0990049,7.74798182 C31.4570805,7.81034545 30.8126239,7.89689091 30.1833607,8.00889091 L30.7543822,11.2047091 L30.2783199,11.2887091 L29.7072984,8.09289091 C29.0717047,8.2138 28.4424415,8.36143636 27.819509,8.52561818 L28.6716098,11.6476182 L28.2044104,11.7774364 L27.3535757,8.65161818 C26.883844,8.78652727 26.4191769,8.93416364 25.9595742,9.09325455 L30.8949219,20.2219818 C30.9493652,20.2067091 31.0114052,20.2894364 31.0620501,20.2728909" id="Fill-108" fill="#EE3A39"></path>
                <path d="M22.4243054,26.1481818 C22.1710808,25.6772727 21.607656,25.0078182 20.7745471,24.9556364 C19.7641809,24.8894545 19.055152,23.9298182 19.1551757,23.1509091 C19.2324092,21.6236364 17.7168599,21.4734545 17.5649251,21.364 C17.8814559,21.0063636 18.9437331,20.6207273 19.6059155,21.5269091 C20.0072765,22.2485455 20.7277005,22.9154545 21.5240919,22.9014545 C22.5724418,22.8823636 23.3599703,23.9438182 23.7005574,24.5789091 C23.7448718,24.5305455 23.7879199,24.4796364 23.8322342,24.4287273 L16.7533403,14.5078182 C16.3924952,14.8285455 16.0430452,15.1594545 15.701192,15.498 L17.9346331,17.7354545 L17.5927798,18.0816364 L15.3606049,15.8429091 C14.888341,16.3303636 14.4338028,16.8356364 13.9995226,17.3485455 L16.421616,19.3658182 L16.112682,19.74 L13.6893225,17.724 C13.31455,18.1936364 12.9511727,18.6696364 12.6055211,19.1583636 L15.1833477,20.9630909 L14.908599,21.3589091 L12.3282402,19.558 C12.0307013,19.9996364 11.7432913,20.4501818 11.4710749,20.9045455 L22.3951846,26.1965455 C22.4053136,26.1838182 22.4141764,26.1685455 22.4243054,26.1481818" id="Fill-110" fill="#EE3A39"></path>
                <path d="M26.1806393,22.4218909 C26.0654221,21.8898909 25.7539558,21.2166182 25.0816445,20.9149818 C24.1548424,20.5013455 23.8205859,19.3558909 24.1826971,18.6571636 C24.7841056,17.2546182 23.4141604,16.5826182 23.3090722,16.4273455 C23.7268928,16.2071636 24.8588068,16.2122545 25.169007,17.2953455 C25.2956193,18.1137091 25.7387623,18.9868 26.4921056,19.2515273 C27.3935852,19.5671636 27.782285,20.6426182 27.9190262,21.3718909 C27.9873969,21.3337091 28.0532353,21.3031636 28.1190737,21.2700727 L24.8929921,9.48970909 C24.3954058,9.68316364 23.90415,9.89570909 23.420491,10.1197091 L24.7828394,13.0304364 L24.3409625,13.2340727 L22.9836786,10.3297091 C22.4139232,10.6033455 21.8580952,10.9011636 21.31113,11.2129818 L22.9140418,13.9824364 L22.4949551,14.2306182 L20.8933094,11.4598909 C20.3590055,11.7818909 19.8360967,12.1178909 19.3296474,12.4768 L21.1553969,15.0833455 L20.7578342,15.3658909 L18.9308187,12.7542545 C18.4838772,13.0826182 18.049597,13.4186182 17.6229136,13.7648 L26.0856801,22.4829818 C26.116067,22.4613455 26.1489862,22.4397091 26.1806393,22.4218909" id="Fill-112" fill="#EE3A39"></path>
                <path d="M23.8560374,45.5137455 C23.348322,45.6995636 22.6089062,46.1755636 22.4455763,47.0079273 C22.2480611,48.0044727 21.2060418,48.5784727 20.4526986,48.3748364 C18.9561411,48.0986545 18.6066912,49.5902909 18.4775466,49.7252 C18.1736771,49.3586545 17.9318476,48.2501091 18.9118268,47.7104727 C19.6740329,47.4062909 20.4311745,46.7775636 20.5198031,45.9808364 C20.6502138,44.8672 21.9378609,44.2142909 22.5835837,43.9953818 C22.5519306,43.9495636 22.515213,43.9050182 22.4810277,43.8592 L11.5518535,49.1537455 C11.8063443,49.5788364 12.0760285,49.9988364 12.3571078,50.4048364 L14.9184747,48.5912 L15.199554,48.9844727 L12.6331226,50.8070182 C13.0015644,51.3237455 13.3814013,51.8290182 13.778964,52.3139273 L16.1795333,50.2724727 L16.4922657,50.6466545 L14.0929625,52.6855636 C14.5031864,53.1755636 14.9349343,53.6477455 15.3818758,54.1021091 L17.5975911,51.8506545 L17.9394443,52.1968364 L15.7211967,54.4457455 C16.0909047,54.8161091 16.47454,55.1737455 16.8670381,55.5161091 L23.9408676,45.6015636 C23.9092145,45.5761091 23.8826259,45.5392 23.8560374,45.5137455" id="Fill-114" fill="#EE3A39"></path>
                <path d="M20.9343318,41.1387455 C20.4164875,41.0992909 19.444105,41.2405636 18.960446,42.0156545 C18.4223437,42.8760182 17.2448492,43.0478364 16.6105216,42.5871091 C15.3127454,41.7878364 14.4568463,43.0529273 14.2909841,43.1292909 C14.1327188,42.6825636 14.3023792,41.5638364 15.4089708,41.4085636 C16.2281524,41.3983818 17.1574867,41.0827455 17.5233963,40.3725636 C18.0640308,39.3327455 19.6175638,39.2143818 20.2480931,39.2602 C20.2354319,39.2105636 20.2189723,39.1596545 20.2050449,39.1112909 L8.12623099,40.3102 C8.23005308,40.8320182 8.34400415,41.3487455 8.47568095,41.8540182 L11.4890538,41.0242 L11.6169322,41.4963818 L8.60735775,42.3300182 C8.76688925,42.9142 8.95047709,43.4958364 9.15052454,44.0672909 L12.0828655,42.9816545 L12.2512599,43.4411091 L9.3189189,44.5331091 C9.53669207,45.1160182 9.7747232,45.7002 10.0330123,46.2742 L12.8640635,44.9302 L13.0717076,45.3705636 L10.2381242,46.7171091 C10.4685586,47.2007455 10.7167188,47.6780182 10.976274,48.1540182 L20.9925735,41.2685636 C20.9710494,41.2214727 20.9533236,41.1807455 20.9343318,41.1387455" id="Fill-116" fill="#EE3A39"></path>
                <path d="M19.6806168,36.0974727 C19.2273447,35.8709273 18.2296397,35.6354727 17.4838933,36.2069273 C16.6761067,36.8165636 15.516338,36.5632909 15.0820578,35.9040182 C14.1489251,34.7000182 12.9005278,35.5832909 12.7194722,35.5960182 C12.7283351,35.1238364 13.2778325,34.1336545 14.3704967,34.3767455 C15.1415656,34.6592909 16.1190126,34.6949273 16.7140904,34.1591091 C17.5902476,33.3662 19.096934,33.8218364 19.6641572,34.0827455 C19.6692216,34.0191091 19.6717539,33.9605636 19.6780845,33.9007455 L7.9082046,30.8691091 C7.83603558,31.3552909 7.77906004,31.8465636 7.72968125,32.3391091 L10.834215,32.6051091 L10.7911668,33.0925636 L7.68536694,32.8278364 C7.64231875,33.4349273 7.61573017,34.0483818 7.61066568,34.6618364 L10.7177317,34.6618364 L10.7202639,35.1480182 L7.60686731,35.1480182 C7.61319792,35.8047455 7.63598814,36.4563818 7.68536694,37.1016545 L10.7886345,36.8165636 L10.834215,37.3014727 L7.72968125,37.5878364 C7.77906004,38.1211091 7.84743069,38.6442 7.92846256,39.1723818 L19.6856812,36.1623818 C19.6844151,36.1445636 19.6806168,36.1191091 19.6806168,36.0974727" id="Fill-118" fill="#EE3A39"></path>
                <path d="M28.0414603,48.6160182 C27.6666879,49.0016545 27.2653269,49.6380182 27.3856086,50.3774727 C27.5514707,51.3765636 26.7804018,52.2878364 25.9992039,52.3642 C24.5039125,52.6340182 24.6925649,54.1574727 24.6241942,54.3242 C24.210172,54.0951091 23.5973684,53.1380182 24.3241231,52.2840182 C24.9318621,51.7316545 25.4205856,50.8776545 25.2268688,50.1038364 C24.9774426,49.0920182 25.7940919,48.1031091 26.3359926,47.6182 C26.2942105,47.5914727 26.2536946,47.5634727 26.2119125,47.5367455 L17.739017,56.2574727 C18.1416442,56.5883818 18.5556664,56.9040182 18.9772854,57.2031091 L20.7815107,54.5863818 L21.1778073,54.8625636 L19.3723158,57.4856545 C19.8838295,57.8394727 20.4118028,58.1831091 20.948639,58.5000182 L22.5274944,55.7229273 L22.9465812,55.9609273 L21.3677257,58.7507455 C21.9121586,59.0536545 22.4679867,59.3552909 23.0352098,59.6251091 L24.3697035,56.7067455 L24.8115804,56.9116545 L23.4745545,59.8325636 C23.9417539,60.0540182 24.4190823,60.2525636 24.8976768,60.4396545 L28.1807339,48.6936545 C28.1351534,48.6707455 28.0908391,48.6427455 28.0414603,48.6160182" id="Fill-120" fill="#EE3A39"></path>
                <path d="M34.0357933,62.2655091 L33.3039742,50.1491455 C33.2254746,50.1389636 33.1482411,50.1249636 33.0710076,50.1173273 C32.9038793,50.5920545 32.8342426,51.2195091 33.1520394,51.7795091 C33.6559564,52.6666 33.250797,53.7891455 32.5443004,54.1340545 C31.2351291,54.9091455 31.9466903,56.2671455 31.9390936,56.4504182 C31.4731603,56.3816909 30.56535,55.7058727 30.9489853,54.6444182 C31.3288222,53.9126 31.4883537,52.9402364 31.0325494,52.2835091 C30.5045761,51.5071455 30.802115,50.4367818 31.1135813,49.7635091 C31.0616703,49.7520545 31.0122915,49.7393273 30.9641788,49.7253273 L25.9604605,60.8387818 C26.4555146,61.0055091 26.953101,61.1595091 27.4608163,61.3058727 L28.2749334,58.1736909 L28.7471973,58.2984182 L27.9242173,61.4318727 C28.5256258,61.5909636 29.1358971,61.7258727 29.7487007,61.8391455 L30.2981981,58.6407818 L30.7742603,58.7260545 L30.2247629,61.9269636 C30.8059134,62.0262364 31.3921284,62.1076909 31.9872062,62.1726 L32.2695517,58.9233273 L32.7532107,58.9691455 L32.4708652,62.2184182 C33.0608786,62.2655091 33.4343849,62.2527818 34.0357933,62.2655091" id="Fill-122" fill="#EE3A39"></path>
                <path d="M20.1961821,30.8686 C19.825208,30.4944182 19.0047603,29.9636909 18.1361999,30.2233273 C17.1638173,30.5186 16.1686446,29.8656909 15.9951858,29.0956909 C15.5419137,27.6320545 14.0694126,28.0202364 13.8921554,27.9693273 C14.0643481,27.5302364 14.9291102,26.7984182 15.8647751,27.4144182 C16.4851754,27.9489636 17.3904534,28.3269636 18.1349337,28.0367818 C19.1845497,27.6244182 20.3797699,28.4898727 20.8621628,28.9582364 C20.884953,28.9098727 20.9077432,28.8526 20.9292673,28.8016909 L10.9003066,21.9060545 C10.657211,22.3591455 10.4280427,22.8160545 10.2090034,23.2767818 L13.0514497,24.5940545 L12.8514022,25.0356909 L10.0051576,23.7184182 C9.74940074,24.2860545 9.51516798,24.8664182 9.29866093,25.4531455 L12.2411309,26.5133273 L12.0752688,26.9727818 L9.13153269,25.9138727 C8.928953,26.4955091 8.74283291,27.0860545 8.57950304,27.6982364 L11.5966743,28.4962364 L11.4763926,28.9709636 L8.45162461,28.1704182 C8.32248006,28.6807818 8.20726286,29.2064182 8.10470689,29.7320545 L20.1733918,30.9436909 C20.1784563,30.9169636 20.184787,30.8953273 20.1961821,30.8686" id="Fill-124" fill="#EE3A39"></path>
                <path d="M33.5980946,45.4353455 C33.5791027,45.5537091 33.272701,45.7255273 33.0992421,45.7178909 C32.7548566,45.7026182 32.4142695,45.6478909 32.0749486,45.5893455 C31.9622636,45.5677091 31.7558855,45.5944364 31.7242325,45.4608 C31.6976439,45.3449818 31.7824741,45.2278909 31.8660383,45.1655273 C32.0876098,45.0229818 32.347165,44.9249818 32.5889945,44.8244364 C32.7941064,44.7366182 33.025807,44.5978909 33.2473785,44.5546182 C33.3068863,44.5457091 33.4107084,44.5508 33.4575549,44.5940727 C33.5271917,44.6513455 33.5347884,44.7888 33.551248,44.8702545 C33.5841672,45.0560727 33.6221509,45.2457091 33.5980946,45.4353455 M31.0341954,41.9302545 C30.9569619,42.1529818 30.8898574,42.3846182 30.8126239,42.6073455 C30.6632213,43.0477091 30.5011576,43.4918909 30.2669248,43.9017091 C29.9845794,44.3815273 27.9283956,44.1473455 27.6283244,43.6662545 C27.562486,43.5529818 27.6802354,43.2882545 27.7739285,43.1291636 C28.108185,42.5475273 28.2677165,41.9175273 27.8157106,41.3893455 C27.387761,40.8866182 26.8699167,40.3966182 26.286234,40.1064364 C26.0735253,40.0058909 25.8772762,39.8582545 25.7126802,39.6813455 C25.4455282,39.4089818 25.2695371,39.0628 25.1062073,38.7153455 C25.021377,38.5409818 24.9428774,38.3653455 24.8504504,38.1922545 C24.8124667,38.1158909 24.7428299,38.0306182 24.7377655,37.9402545 C24.7352332,37.8511636 24.7694185,37.7264364 24.8263941,37.6577091 C24.8934986,37.5698909 24.9783288,37.5877091 25.0758203,37.5737091 C25.3379078,37.5317091 25.5961969,37.4642545 25.8633489,37.4438909 C26.10138,37.4235273 26.4039834,37.4566182 26.585039,37.5953455 C27.6460501,38.4073455 27.7511383,38.4035273 28.786827,37.5698909 C28.9780116,37.4197091 29.4122918,37.1562545 29.5946135,37.4388 C29.7123629,37.6208 29.6465245,37.8842545 29.6465245,38.0891636 C29.6465245,38.2151636 29.5971457,38.6351636 29.7579434,38.7013455 C30.0694096,38.8400727 30.3163036,39.0678909 30.4530449,39.3873455 C30.5758589,39.6788 30.6125764,39.9995273 30.6556246,40.3113455 C30.6847454,40.5480727 30.721463,40.7860727 30.8126239,41.0113455 C30.8316157,41.0673455 30.8544059,41.1169818 30.8822606,41.1678909 C30.9177121,41.2302545 30.9721554,41.2735273 31.0088729,41.3371636 C31.0595179,41.4364364 31.0797758,41.5509818 31.0848403,41.6591636 C31.0937032,41.7737091 31.070913,41.8322545 31.0341954,41.9302545 M26.7559656,34.1589818 C27.6675742,34.0037091 28.776698,33.7784364 29.6389278,34.8768 C27.8207751,35.2089818 26.1368314,35.5208 24.3997106,35.8440727 C24.6073548,34.4657091 25.8051072,34.3193455 26.7559656,34.1589818 M29.2730182,33.4500727 C27.9613148,33.3749818 26.7572317,33.3049818 25.4835119,33.2311636 C26.3457417,31.7738909 28.3917966,31.8909818 29.2730182,33.4500727 M33.0789841,42.8338909 C32.9156543,42.7384364 32.748526,42.6506182 32.5851961,42.5589818 C32.4889708,42.5042545 32.4547855,42.5093455 32.3522295,42.5284364 C32.2509397,42.5462545 32.1509159,42.5780727 32.0508922,42.5984364 C31.8609738,42.6289818 31.7989337,42.4966182 31.8913607,42.3260727 C31.976191,42.1733455 32.1458514,42.0855273 32.212956,41.9175273 C32.4623822,41.3117091 32.9764282,40.5824364 32.8168967,40.0822545 C32.4522532,38.9597091 32.7333325,37.9071636 32.7865097,36.8304364 C32.7941064,36.6089818 33.108105,36.4218909 33.2676365,36.3213455 C33.3385394,36.2818909 33.386652,36.2691636 33.4676839,36.2755273 C33.6816587,36.3124364 33.7740857,36.4842545 33.9184237,36.6229818 C33.9703348,36.6700727 34.5831383,37.2249818 34.6692347,37.2924364 L34.6692347,35.1338909 C34.5654126,35.0906182 33.9272866,34.4860727 33.8627143,34.4249818 C33.7576261,34.3142545 33.6727958,34.1869818 33.5942962,34.0597091 C33.4486921,33.8217091 33.3385394,33.5429818 33.1321613,33.3597091 C33.0549278,33.2948 32.9700976,33.2451636 32.8662755,33.2362545 C32.6750909,33.2120727 32.5130271,33.2629818 32.4218663,33.0517091 C32.3522295,32.8837091 32.2863911,32.7144364 32.212956,32.5388 C32.0724163,32.2218909 31.9078203,31.9011636 31.6495312,31.6618909 C31.4254274,31.4493455 31.1468804,31.3182545 30.8493414,31.2622545 C30.7455193,31.2418909 30.75185,31.1057091 30.7353904,31.0293455 C30.7037373,30.8931636 30.6366328,30.8931636 30.5112866,30.8931636 C30.268191,30.8931636 30.0263615,30.8868 29.7845319,30.8868 L29.2552925,30.8868 C29.0894304,30.8868 28.9539552,30.7837091 29.04385,30.6068 C29.1033577,30.5049818 29.1793251,30.4133455 29.2299701,30.3026182 C29.2527603,30.2529818 29.2882117,30.1791636 29.2730182,30.1269818 C29.2464297,30.0378909 29.1388092,30.0608 29.0628418,30.0608 L27.4257447,30.0608 L26.3761287,30.0608 C26.2495164,30.0608 26.0494689,30.1015273 25.9380501,30.0378909 C25.8354941,29.9755273 25.8152362,29.8088 25.9152599,29.7400727 C26.0570657,29.6395273 26.2786372,29.5886182 26.4419671,29.5211636 C26.7053207,29.4117091 26.9851339,29.3200727 27.2408907,29.1851636 C27.3029308,29.1546182 27.3573741,29.0871636 27.2966001,29.0248 C27.2497536,28.9777091 27.1535282,28.9738909 27.0978188,28.9586182 C26.9547469,28.9229818 26.8154734,28.8848 26.6724015,28.8555273 C26.482483,28.8097091 26.2900323,28.7600727 26.0963155,28.7142545 C25.9114615,28.6658909 25.7645913,28.5080727 25.9013325,28.3298909 C26.0140175,28.1797091 26.1545572,28.0651636 26.3242176,27.9900727 C26.6445468,27.8348 27.0142547,27.8386182 27.3586402,27.8309818 C27.5954052,27.8284364 27.8359686,27.8284364 28.0689352,27.7673455 C28.1461687,27.7495273 28.2803778,27.7075273 28.3019019,27.6184364 C28.3284904,27.5026182 28.2069426,27.5242545 28.1322414,27.5191636 C28.0030968,27.5026182 27.8726861,27.4873455 27.7384771,27.4797091 C27.3459789,27.4364364 26.9509486,27.3931636 26.5559182,27.3537091 C26.4457655,27.3409818 26.1659523,27.3677091 26.111509,27.2569818 C26.0849204,27.2124364 26.0735253,27.1106182 26.1026461,27.0622545 C26.1368314,27.0228 26.2064682,27.0253455 26.255847,27.0075273 C26.4293059,26.9477091 26.6014986,26.8878909 26.7724252,26.8242545 C26.9534808,26.7644364 27.1320042,26.6982545 27.3092614,26.6397091 C27.4130835,26.6015273 27.9283956,26.5175273 27.7574689,26.3240727 C27.7118885,26.2680727 27.6169293,26.3062545 27.5586876,26.3100727 C27.3637047,26.3215273 27.1687217,26.3304364 26.9737388,26.3431636 C26.7306431,26.3533455 26.4913459,26.3673455 26.245718,26.3775273 C26.1545572,26.3826182 25.7785186,26.4169818 25.854486,26.2426182 C25.8899374,26.1586182 26.008953,26.0758909 26.0735253,26.0084364 C26.1520249,25.9397091 26.2330568,25.8748 26.3166209,25.8226182 C26.6584741,25.6126182 27.058569,25.5235273 27.4460027,25.4624364 C27.7663318,25.4051636 28.0866609,25.3631636 28.3981272,25.2638909 C28.5044815,25.2308 28.6792065,25.2066182 28.6931339,25.0666182 C28.7007306,24.9508 28.5855134,24.9100727 28.4880219,24.9342545 C28.3284904,24.9635273 28.1714912,24.9864364 28.0106936,25.0106182 C27.5207039,25.0958909 27.0294482,25.1735273 26.5369263,25.2575273 C26.2900323,25.2982545 26.0418722,25.3377091 25.7937121,25.3809818 C25.6936884,25.3937091 25.5797373,25.4446182 25.4822458,25.4051636 C25.3961494,25.3720727 25.3341094,25.2766182 25.4088107,25.2066182 C25.4746491,25.1417091 25.5582132,25.0984364 25.6265838,25.0360727 C25.6936884,24.9762545 25.7633251,24.9088 25.8266313,24.8388 C26.081122,24.5842545 26.328016,24.3131636 26.605297,24.0853455 C26.831933,23.8957091 27.088956,23.7302545 27.3700353,23.6424364 C27.5245023,23.5978909 27.6840338,23.5686182 27.8422992,23.5686182 C27.9613148,23.5622545 28.0815964,23.5749818 28.1968136,23.5813455 C28.2981035,23.5940727 28.4981509,23.6488 28.4399093,23.4515273 C28.4120546,23.3649818 28.3183615,23.3866182 28.2525231,23.3815273 C28.1499671,23.3815273 28.0448789,23.3522545 27.9448552,23.3408 C27.7435416,23.3115273 27.5396958,23.2860727 27.3371161,23.3064364 C27.1269397,23.3306182 26.92436,23.3917091 26.7205142,23.4604364 C26.63695,23.4909818 26.328016,23.6208 26.3242176,23.4273455 C26.3216854,23.3484364 26.4457655,23.2466182 26.492612,23.1880727 C26.5673133,23.0989818 26.6420145,23.0200727 26.7205142,22.9411636 C27.0155208,22.6624364 27.3637047,22.4473455 27.7435416,22.2958909 C28.2082087,22.1126182 28.704529,22.0298909 29.198317,21.9688 C29.362913,21.9509818 29.5452347,21.9522545 29.7123629,21.9115273 C29.8275801,21.8873455 29.8693622,21.7868 29.7389515,21.7409818 C29.5667588,21.6735273 29.3743081,21.6862545 29.1869219,21.6620727 C29.0109308,21.6404364 28.8298752,21.6073455 28.6488196,21.5869818 C28.529804,21.5717091 28.4031917,21.5640727 28.28291,21.5398909 C28.200612,21.5182545 28.0537417,21.3858909 28.1816202,21.3680727 C28.7070612,21.2942545 29.1413414,21.1020727 29.6174037,20.8971636 C29.8275801,20.8029818 30.0453533,20.7508 30.2745216,20.7228 C30.4024,20.7049818 30.5404074,20.7508 30.659423,20.7266182 C30.7961643,20.6986182 30.8949219,20.5624364 30.9544297,20.4504364 C31.0088729,20.3486182 31.1646061,20.2264364 31.0215342,20.1895273 C30.9278411,20.1666182 30.7252614,20.1768 30.6303021,20.1831636 C30.4479804,20.1933455 30.2669248,20.2226182 30.0858692,20.2506182 C29.4591383,20.3562545 28.8463348,20.5382545 28.2461924,20.7508 C28.2246683,20.7571636 28.200612,20.7660727 28.1790879,20.7788 C22.8170568,23.1498909 19.0731309,28.5411636 19.0731309,34.8042545 C19.0731309,42.1338909 24.2655016,48.2773455 31.1088967,49.7791636 C31.1164934,49.7422545 31.1392836,49.6022545 31.143082,49.5704364 C31.1772673,49.3337091 31.1924608,49.2662545 31.4444193,49.2662545 C31.6406683,49.2662545 31.7647484,49.3044364 31.9242799,49.4088 C32.1230612,49.5398909 32.3724875,49.6913455 32.6206476,49.6913455 C32.8346224,49.6964364 33.0397343,49.6149818 33.1891368,49.4558909 C33.314483,49.3298909 33.4157729,49.1618909 33.4626194,48.9798909 C33.4942725,48.8666182 33.2878944,48.6069818 33.139758,48.5509818 C32.7915742,48.4148 32.3940116,48.4224364 32.0572228,48.2671636 C31.8305868,48.1615273 31.6102814,47.7733455 31.811595,47.5518909 C31.8900946,47.4678909 32.0432955,47.3737091 32.1597788,47.3622545 C32.4674467,47.3304364 32.7814452,47.2820727 33.0903792,47.2897091 C33.2587736,47.2909818 33.4512243,47.3062545 33.5892317,47.4246182 C33.7196424,47.5404364 33.7399004,47.7288 33.7753518,47.8917091 C33.870311,48.2875273 33.848787,49.8822545 33.848787,50.0235273 C33.848787,50.0540727 33.848787,50.0820727 33.8449886,50.1075273 C33.9424801,50.1100727 34.5882028,50.1138909 34.6920249,50.1138909 L34.6920249,43.7158909 C34.3349782,43.5160727 33.4309663,43.0349818 33.0789841,42.8338909" id="Fill-126" fill="#EE3A39"></path>
            </g>
        </g>
    </g>
</svg>